<?xml version="1.0" standalone="no"?><!DOCTYPE svg PUBLIC "-//W3C//DTD SVG 1.1//EN" "http://www.w3.org/Graphics/SVG/1.1/DTD/svg11.dtd"><svg t="1537930325434" class="icon" style="" viewBox="0 0 1024 1024" version="1.1" xmlns="http://www.w3.org/2000/svg" p-id="49648" xmlns:xlink="http://www.w3.org/1999/xlink" width="32" height="32"><defs><style type="text/css"></style></defs><path d="M510.8992 980.80256l-204.6976-113.1008-0.90112-0.59904a380.10368 380.10368 0 0 1-125.70112-136.69888c-29.7984-55.19872-45.59872-117.4016-45.59872-180.10112V118.79936L512 43.20256l377.99936 75.60192v431.40096c0 62.69952-15.80032 124.9024-45.59872 180.10112a379.97056 379.97056 0 0 1-125.70112 136.69888l-0.90112 0.59904-0.9984 0.49664-205.9008 112.70144z m-175.80032-161.1008l175.8976 97.1008 177.89952-97.30048a322.85184 322.85184 0 0 0 106.19904-115.90144 323.51744 323.51744 0 0 0 38.79936-153.40032V164.80256L511.8976 100.39808 189.9008 164.80256v385.50016c0 53.4016 13.39904 106.50112 38.79936 153.40032 25.40032 46.69952 62.10048 86.79936 106.39872 115.99872z" p-id="49649" fill="#dfb330"></path><path d="M500.13184 637.7984L352.82944 490.496l39.5008-39.59808 107.8016 107.6992 172.40064-172.40064 39.59808 39.59808-211.99872 212.00384z" p-id="49650" fill="#dfb330"></path></svg>