<?xml version="1.0" standalone="no"?><!DOCTYPE svg PUBLIC "-//W3C//DTD SVG 1.1//EN" "http://www.w3.org/Graphics/SVG/1.1/DTD/svg11.dtd"><svg t="1537930245239" class="icon" style="" viewBox="0 0 1024 1024" version="1.1" xmlns="http://www.w3.org/2000/svg" p-id="47229" xmlns:xlink="http://www.w3.org/1999/xlink" width="32" height="32"><defs><style type="text/css"></style></defs><path d="M953.620581 485.447251 953.620581 485.447251z" p-id="47230" fill="#dfb330"></path><path d="M817.734728 265.74955c-5.309936-13.137205-20.22667-19.518542-33.337269-14.261818-13.114692 5.252631-19.523659 20.173458-14.3181 33.30964 15.669888 39.115879 23.824615 76.356039 23.824615 113.49796 0 48.103578-29.731138 122.084523-83.086323 212.986859-19.523659 33.135678-41.748846 67.921949-66.228377 103.812367-33.282011 48.853661-69.018933 97.352235-104.756879 143.208633-9.885138 12.670577-19.206434 24.419156-27.829835 35.130102-8.631588-10.710946-17.950837-22.459524-27.832905-35.130102-35.742039-45.857421-71.457472-94.354971-104.767112-143.208633-24.473391-35.890418-46.726208-70.676689-66.195631-103.812367-53.382814-90.902336-83.117023-164.883281-83.117023-212.986859 0-154.992003 126.913505-281.906531 281.911648-281.906531 52.506864 0 104.308671 15.669888 150.358473 44.724621 11.917424 7.55814 27.735691 4.006244 35.341926-7.985882 7.504928-11.95938 4.001127-27.777647-8.006348-35.335786-54.06229-34.137495-115.28056-52.658314-177.693028-52.658314-183.303816 0-333.167009 149.863193-333.167009 333.161892 0 59.942207 32.432667 140.658554 90.174766 238.965533 20.098757 34.133402 42.946115 69.876464 68.049862 106.715487 33.957393 49.850361 70.322625 99.110275 106.667392 145.756665 12.736069 16.371876 24.548092 31.234375 35.161824 44.249807 6.40385 7.907087 10.989285 13.416568 13.491269 16.414855 10.234085 12.214183 29.003568 12.214183 39.241746 0 2.50096-2.998287 7.109931-8.507768 13.516852-16.414855 10.608615-13.015432 22.420639-27.877931 35.134195-44.249807 36.340673-46.64639 72.682369-95.906304 106.669438-145.756665 25.075095-36.839023 47.950082-72.577992 68.02428-106.715487 57.764612-98.30698 90.199325-179.023326 90.199325-238.965533C845.163427 354.150926 835.652819 310.60106 817.734728 265.74955L817.734728 265.74955zM358.232382 408.555c0 80.663134 65.395406 146.06161 146.08617 146.06161 80.655971 0 146.082076-65.399499 146.082076-146.06161 0-80.68974-65.426105-146.084123-146.082076-146.084123C423.627788 262.470877 358.232382 327.865259 358.232382 408.555L358.232382 408.555zM599.141174 408.555c0 52.357462-42.49279 94.807273-94.822622 94.807273-52.385091 0-94.830809-42.450834-94.830809-94.807273 0-52.378951 42.445718-94.823646 94.830809-94.823646C556.648384 313.732377 599.141174 356.177072 599.141174 408.555L599.141174 408.555zM599.141174 408.555" p-id="47231" fill="#dfb330"></path></svg>