<?xml version="1.0" standalone="no"?><!DOCTYPE svg PUBLIC "-//W3C//DTD SVG 1.1//EN" "http://www.w3.org/Graphics/SVG/1.1/DTD/svg11.dtd"><svg t="1537930369349" class="icon" style="" viewBox="0 0 1024 1024" version="1.1" xmlns="http://www.w3.org/2000/svg" p-id="52780" xmlns:xlink="http://www.w3.org/1999/xlink" width="32" height="32"><defs><style type="text/css"></style></defs><path d="M441.6 861.4c-121.1 0-214.7-44.1-266.1-124.9-75.4-119.2-64.3-218.2-42.2-280.6 38.5-104.7 130.2-176.2 201.8-198 64.3-20.2 148.5-33.1 236.8-45.7 128.3-18.3 260.4-38.5 328.2-80.7 7.3-3.8 14.8-5.4 24-1.9 7.3 3.8 14.8 9.1 16.4 16.4 18.3 53.3 49.5 315.6-60.5 499.1-75.4 123-257 212.8-432.9 216.6h-5.4v-0.3z m455-667.8c-80.7 36.6-199.9 55.2-315.6 71.6-86.1 12.9-168.7 25.5-229.2 44.1-60.5 18.3-137.5 82.6-166.8 165.2-27.4 73.5-14.8 152.3 36.6 233 56.8 88 165.2 100.9 225.7 100.9 156.1-3.8 321-86.1 385.3-192.6 85.8-141.6 78.5-339.6 64-422.2z" p-id="52781" fill="#ffffff"></path><path d="M91 896.4c-3.8 0-7.3 0-9.1-1.9-14.8-5.4-20.2-22.1-14.8-35 38.5-95.5 154.2-383.4 546.7-458.7 14.8-3.8 29.3 7.3 31.2 22.1 3.8 14.8-7.3 29.3-22.1 31.2-326.6 62.4-445.8 273.4-508.2 425.6-3.5 11-12.6 16.7-23.7 16.7z" p-id="52782" fill="#ffffff"></path></svg>