<?xml version="1.0" standalone="no"?><!DOCTYPE svg PUBLIC "-//W3C//DTD SVG 1.1//EN" "http://www.w3.org/Graphics/SVG/1.1/DTD/svg11.dtd"><svg t="1537930300397" class="icon" style="" viewBox="0 0 1024 1024" version="1.1" xmlns="http://www.w3.org/2000/svg" p-id="48778" xmlns:xlink="http://www.w3.org/1999/xlink" width="32" height="32"><defs><style type="text/css"></style></defs><path d="M221.9 202.8h219.7" p-id="48779" fill="#ffffff"></path><path d="M441.6 227.7H221.9c-13.8 0-24.9-11.2-24.9-24.9 0-13.8 11.2-24.9 24.9-24.9h219.7c13.8 0 24.9 11.2 24.9 24.9s-11.2 24.9-24.9 24.9z" p-id="48780" fill="#ffffff"></path><path d="M538.2 202.8h56.1" p-id="48781" fill="#ffffff"></path><path d="M594.3 227.7h-56.1c-13.8 0-24.9-11.2-24.9-24.9 0-13.8 11.2-24.9 24.9-24.9h56.1c13.8 0 24.9 11.2 24.9 24.9s-11.2 24.9-24.9 24.9zM855.2 570.4H483.1c-13.8 0-24.9-11.2-24.9-24.9s11.2-24.9 24.9-24.9h372.1c29.9 0 54.3-24.3 54.3-54.3V304.2c0-5.6-4.6-10.2-10.3-10.2H862c-13.8 0-24.9-11.2-24.9-24.9 0-13.8 11.2-24.9 24.9-24.9h37.3c33.1 0 60.1 27 60.1 60.1v162.1c-0.1 57.3-46.8 104-104.2 104z" p-id="48782" fill="#ffffff"></path><path d="M763 474.4H168.9C111.6 474.4 65 427.8 65 370.5V166.9C65 109.6 111.6 63 168.9 63H763c57.3 0 103.9 46.6 103.9 103.9v203.6c0 57.3-46.6 103.9-103.9 103.9zM168.9 112.9c-29.8 0-54 24.2-54 54v203.6c0 29.8 24.2 54 54 54H763c29.8 0 54-24.2 54-54V166.9c0-29.8-24.2-54-54-54H168.9zM483.1 659c-13.8 0-24.9-11.2-24.9-24.9v-88.6c0-13.8 11.2-24.9 24.9-24.9 13.8 0 24.9 11.2 24.9 24.9v88.6c0 13.7-11.1 24.9-24.9 24.9z" p-id="48783" fill="#ffffff"></path><path d="M520.4 959.3h-74.5c-51.2 0-92.8-41.6-92.8-92.8V702c0-51.2 41.6-92.8 92.8-92.8h74.5c51.2 0 92.8 41.6 92.8 92.8v164.5c0 51.1-41.6 92.8-92.8 92.8zM445.9 659c-23.7 0-43 19.3-43 43v164.5c0 23.7 19.3 43 43 43h74.5c23.7 0 43-19.3 43-43V702c0-23.7-19.3-43-43-43h-74.5z" p-id="48784" fill="#ffffff"></path></svg>