<?xml version="1.0" standalone="no"?><!DOCTYPE svg PUBLIC "-//W3C//DTD SVG 1.1//EN" "http://www.w3.org/Graphics/SVG/1.1/DTD/svg11.dtd"><svg t="1537427731227" class="icon" style="" viewBox="0 0 1024 1024" version="1.1" xmlns="http://www.w3.org/2000/svg" p-id="1022" xmlns:xlink="http://www.w3.org/1999/xlink" width="30" height="30"><defs><style type="text/css"></style></defs><path d="M75.909 531.342h825.666l-323.375 323.356c-7.471 7.471-7.358 19.361 0.037 26.776 7.452 7.452 19.456 7.377 26.889-0.076l353.242-353.451c5.158-3.394 8.742-8.951 8.742-15.568 0-4.722-1.896-8.875-4.722-12.193l0.171-0.228-0.986-0.986c-0.019-0.019-0.038-0.038-0.057-0.057l-356.428-356.428c-7.301-7.301-19.418-7.415-26.833-0.019-7.452 7.452-7.433 19.399-0.037 26.776l324.153 324.172h-826.464c-10.581 0-19.020 8.495-19.020 18.963 0 10.543 8.514 18.963 19.020 18.963z" p-id="1023" fill="#ffffff"></path></svg>